<svg xmlns="http://www.w3.org/2000/svg" xmlns:xlink="http://www.w3.org/1999/xlink" fill="currentColor" version="1.1" width="16" height="16" viewBox="0 0 16 16"><defs><mask id="master_svg0_746_05352"><g><rect x="0" y="0" width="16" height="16" rx="0" fill="#FFFFFF" fill-opacity="1"/></g></mask></defs><g mask="url(#master_svg0_746_05352)"><g><path d="M6.57895,2C5.79413,2,5.15789,2.637414,5.15789,3.4237L5.15789,9.43486C5.15789,10.22115,5.79413,10.85856,6.57895,10.85856L12.5789,10.85856C13.3638,10.85856,14,10.22115,14,9.43486L14,3.4237C14,2.637414,13.3638,2,12.5789,2L6.57895,2ZM6.10526,3.4237C6.10526,3.16161,6.31734,2.949134,6.57895,2.949134L12.5789,2.949134C12.8405,2.949134,13.0526,3.16161,13.0526,3.4237L13.0526,9.43486C13.0526,9.69696,12.8405,9.90943,12.5789,9.90943L6.57894,9.90943C6.31734,9.90943,6.10526,9.69696,6.10526,9.43486L6.10526,3.4237ZM4.36842,5.00559C4.36842,4.95201,4.37174,4.89921,4.3782,4.84739L3.42105,4.84739C2.636224,4.84739,2,5.4848,2,6.27109L2,12.2822C2,13.0685,2.636224,13.706,3.42105,13.706L9.421050000000001,13.706C10.20587,13.706,10.84211,13.0685,10.84211,12.2822L10.84211,11.6495L9.894739999999999,11.6495L9.894739999999999,12.2822C9.894739999999999,12.5443,9.68266,12.7568,9.421050000000001,12.7568L3.42105,12.7568C3.15945,12.7568,2.9473700000000003,12.5443,2.9473700000000003,12.2822L2.9473700000000003,6.27109C2.9473700000000003,6.00899,3.15945,5.79652,3.42105,5.79652L4.36842,5.79652L4.36842,5.00559Z" fill="currentColor" fill-opacity="1"/><path d="M13.6546,2.346348Q13.209,1.9,12.5789,1.9L6.57895,1.9Q5.94886,1.9,5.50334,2.346348Q5.05789,2.79262,5.05789,3.4237L5.05789,9.43486Q5.05789,10.06594,5.50334,10.51221Q5.94886,10.95856,6.57895,10.95856L12.5789,10.95856Q13.209,10.95856,13.6546,10.51221Q14.1,10.06594,14.1,9.43486L14.1,3.4237Q14.1,2.792621,13.6546,2.346348ZM6.57895,2.1L12.5789,2.1Q13.1261,2.0999999,13.513,2.487638Q13.9,2.8753539999999997,13.9,3.4237L13.9,9.43486Q13.9,9.9832,13.513,10.37092Q13.1261,10.75856,12.5789,10.75856L6.57895,10.75856Q6.03181,10.75856,5.64489,10.37092Q5.25789,9.98321,5.25789,9.43486L5.25789,3.4237Q5.25789,2.8753539999999997,5.64489,2.487638Q6.03181,2.1,6.57895,2.1ZM6.00526,3.4237L6.00526,9.43486Q6.00526,9.672799999999999,6.17322,9.84107Q6.34126,10.00943,6.57894,10.00943L12.5789,10.00943Q12.8166,10.00943,12.9847,9.84107Q13.1526,9.672799999999999,13.1526,9.43486L13.1526,3.4237Q13.1526,3.18576,12.9847,3.01749Q12.8166,2.8491340000000003,12.5789,2.8491340000000003L6.57895,2.8491340000000003Q6.34126,2.8491340000000003,6.17322,3.01749Q6.00526,3.18576,6.00526,3.4237ZM6.57894,9.809429999999999Q6.20526,9.809429999999999,6.20526,9.43486L6.20526,3.4237Q6.20526,3.04913,6.57895,3.04913L12.5789,3.04913Q12.9526,3.04913,12.9526,3.4237L12.9526,9.43486Q12.9526,9.59007,12.8431,9.69979Q12.7337,9.809429999999999,12.5789,9.809429999999999L6.57894,9.809429999999999ZM3.42105,5.896520000000001L4.46842,5.896520000000001L4.46842,5.00559Q4.46842,4.93206,4.47743,4.85975L4.491429999999999,4.74739L3.42105,4.74739Q2.790957,4.74739,2.345439,5.19374Q1.9000002,5.64001,1.9000001,6.27109L1.9,12.2822Q1.9,12.9133,2.345439,13.3596Q2.790955,13.8059,3.42105,13.806L9.421050000000001,13.806Q10.05114,13.806,10.49666,13.3596Q10.94211,12.9133,10.94211,12.2822L10.94211,11.5495L9.794740000000001,11.5495L9.794740000000001,12.2822Q9.794740000000001,12.4375,9.685220000000001,12.5472Q9.57578,12.6568,9.42106,12.6568L3.42105,12.6568Q3.04737,12.6568,3.04737,12.2822L3.04737,6.27109Q3.04737,5.896520000000001,3.42105,5.896520000000001ZM4.26842,5.69652L3.42105,5.69652Q3.18337,5.69652,3.01533,5.864879999999999Q2.8473699999999997,6.03315,2.8473699999999997,6.27109L2.847369,12.2822Q2.8473699999999997,12.5202,3.01533,12.6885Q3.18338,12.8568,3.42105,12.8568L9.42106,12.8568Q9.65873,12.8568,9.82678,12.6885Q9.99474,12.5202,9.99474,12.2822L9.99474,11.7495L10.74211,11.7495L10.74211,12.2822Q10.74211,12.8306,10.35511,13.2183Q9.96819,13.606,9.421050000000001,13.606L3.42105,13.606Q2.873906,13.606,2.486992,13.2183Q2.1,12.8306,2.1,12.2822L2.1,6.27109Q2.1,5.72274,2.486992,5.33503Q2.8739090000000003,4.94739,3.42105,4.94739L4.26964,4.94739Q4.26842,4.97641,4.26842,5.00559L4.26842,5.69652Z" fill-rule="evenodd" fill="currentColor" fill-opacity="1"/></g></g></svg>